<?xml version="1.0" encoding="utf-8"?>
<!-- Generator: Adobe Illustrator 24.1.2, SVG Export Plug-In . SVG Version: 6.00 Build 0)  -->
<svg version="1.1" id="Layer_1" xmlns="http://www.w3.org/2000/svg" xmlns:xlink="http://www.w3.org/1999/xlink" x="0px" y="0px"
	 viewBox="0 0 154.92 66.56" style="enable-background:new 0 0 154.92 66.56;" xml:space="preserve">
<style type="text/css">
	.st0{fill:#FFFFFF;}
</style>
<polygon class="st0" points="0,16.8 10.17,66.56 26.78,63.06 24.04,49.26 37.74,60.59 50.93,45.49 33.91,35.06 47.48,12.11 
	28.7,5.85 20.75,26.91 18.12,11.86 "/>
<polygon class="st0" points="53.74,26.19 71.07,29.85 69.22,57.85 54.96,57.85 "/>
<path class="st0" d="M74.61,0.63v57.22c0,0,42.78,0,42.78-31.83C117.39-6.33,74.61,0.63,74.61,0.63z M92,37.58V18.37
	c0,0,8.35,1.39,8.35,9.61C100.35,33.5,92,37.58,92,37.58z"/>
<path class="st0" d="M154.26,15.06c0,0-32.87-13.04-35.3,8c-2.41,20.79,16,15.13,15.48,21.39s-13.39-2.35-13.39-2.35l-3.65,17.13
	c0,0,32.68,14.78,36.94-7.23c4.8-24.77-21.29-16.43-19.89-24.77c0.87-4.35,16.7,4.52,16.7,4.52L154.26,15.06z"/>
<circle class="st0" cx="62" cy="14.73" r="10.07"/>
</svg>
